<svg xmlns="http://www.w3.org/2000/svg" width="346" height="40" viewBox="0 0 346 40" fill="none">
<path fill-rule="evenodd" clip-rule="evenodd" d="M192.912 10.3247C194.069 10.3441 195.227 10.3635 196.383 10.3926C196.7 10.4011 196.974 10.5477 197.207 10.8312C197.438 11.1171 197.554 11.4479 197.554 11.8283C197.554 11.8283 197.266 23.5647 197.235 25.5988C197.205 27.6281 196.974 29.6963 196.455 31.4445C195.933 33.1916 195.153 34.7097 194.113 35.9879C193.071 37.2685 191.77 38.2644 190.207 38.9659C188.645 39.6685 186.836 40.0175 184.782 39.9993C182.7 39.9787 180.885 39.5923 179.337 38.8689C177.791 38.1432 176.495 37.1316 175.454 35.8497C174.416 34.5679 173.641 33.0632 173.136 31.3295C172.63 29.5993 172.484 27.4573 172.377 25.5528C172.272 23.6433 171.979 12.9853 171.979 12.9853C171.979 12.6122 172.094 12.2838 172.326 12.0015C172.555 11.718 172.831 11.5751 173.148 11.5617C174.317 11.5205 175.489 11.4878 176.66 11.4588C176.978 11.4491 177.253 11.5848 177.485 11.8549C177.716 12.1312 177.832 12.4547 177.832 12.8387C177.832 12.8339 178.15 24.1959 178.231 25.6291C178.312 27.06 178.389 28.2739 178.708 29.2892C179.027 30.3057 179.474 31.1368 180.054 31.7923C180.632 32.4453 181.325 32.9299 182.135 33.2364C182.945 33.5479 183.828 33.7041 184.782 33.7089C185.738 33.7137 186.627 33.5684 187.452 33.268C188.277 32.9699 188.976 32.4937 189.557 31.8407C190.136 31.1889 190.591 30.3541 190.922 29.3352C191.256 28.3175 191.339 27.1241 191.423 25.6521C191.504 24.1788 191.741 11.7277 191.741 11.7277C191.741 11.34 191.856 11.0117 192.087 10.733C192.32 10.458 192.594 10.3199 192.912 10.3247ZM204.639 3.2832C205.649 3.35711 206.661 3.43827 207.669 3.52551C208.161 3.56791 208.535 3.75449 208.796 4.07555C209.057 4.39783 209.243 4.6462 209.359 4.82187C213.398 12.0779 217.431 18.9885 221.453 25.2293L221.454 6.29027C221.454 5.94983 221.569 5.67601 221.8 5.46036C222.028 5.24712 222.302 5.16111 222.617 5.20351C223.781 5.3598 224.942 5.52457 226.104 5.69297C226.418 5.7378 226.69 5.90015 226.921 6.16305C227.149 6.42839 227.264 6.71916 227.264 7.04144V35.2173C227.264 35.5348 227.149 35.8316 226.921 36.0969C226.692 36.3647 226.418 36.5233 226.103 36.5719C225.1 36.7233 224.095 36.8675 223.091 37.008C222.601 37.0747 222.228 36.9887 221.97 36.7487C221.711 36.5076 221.526 36.3163 221.41 36.1769C217.388 30.296 213.353 23.6907 209.315 16.6757V37.2019C209.314 37.5665 209.199 37.8912 208.969 38.176C208.738 38.4619 208.464 38.6181 208.147 38.6436C206.978 38.7369 205.809 38.8217 204.639 38.9004C204.319 38.9223 204.047 38.8023 203.816 38.5467C203.583 38.2911 203.469 37.9676 203.469 37.598V4.57956C203.469 4.2064 203.583 3.88655 203.816 3.63212C204.047 3.37769 204.321 3.25655 204.639 3.2832ZM167.548 3.85989C167.777 4.11068 167.893 4.42205 167.893 4.79279V8.37656C167.895 8.74731 167.777 9.07443 167.548 9.35429C167.315 9.63537 167.043 9.7856 166.725 9.80256C162.12 10.0631 157.524 10.4011 152.941 10.7936V19.7131C157.238 19.6621 161.545 19.604 165.859 19.5556C166.176 19.552 166.45 19.6804 166.682 19.9481C166.913 20.2135 167.028 20.5309 167.028 20.9004V24.4708C167.029 24.8404 166.912 25.1565 166.682 25.4207C166.45 25.6848 166.177 25.8132 165.859 25.8072C161.545 25.7248 157.238 25.6121 152.941 25.4607C152.943 28.9681 152.943 32.478 152.943 35.9891C152.944 36.3271 152.827 36.6033 152.597 36.8177C152.368 37.0311 152.095 37.1147 151.779 37.0735C150.616 36.9147 149.454 36.7463 148.291 36.5719C147.976 36.5233 147.703 36.3647 147.475 36.0969C147.244 35.8328 147.132 35.5372 147.13 35.2173V7.04144C147.13 6.72037 147.244 6.43081 147.475 6.16305C147.703 5.89531 147.976 5.74265 148.291 5.69297C154.412 4.80491 160.563 4.05375 166.725 3.52551C167.043 3.49885 167.317 3.60911 167.548 3.85989ZM275.115 5.42704C277.22 5.42704 279.052 5.73235 280.611 6.34297C282.169 6.9536 283.466 7.79805 284.504 8.87269C285.543 9.94856 286.335 11.1989 286.883 12.6237C287.43 14.0496 287.749 15.5896 287.835 17.2469C287.864 17.7995 287.884 18.41 287.9 19.0788C287.915 19.7488 287.922 20.4381 287.922 21.1505C287.922 21.8641 287.915 22.5536 287.9 23.2224C287.884 23.8923 287.864 24.5029 287.835 25.0543C287.749 26.6825 287.438 28.2164 286.905 29.6569C286.372 31.0951 285.586 32.3453 284.548 33.4067C283.509 34.468 282.204 35.304 280.632 35.9145C279.061 36.5252 277.22 36.8305 275.115 36.8305C272.982 36.8305 271.135 36.5252 269.578 35.9145C268.02 35.304 266.723 34.468 265.684 33.4067C264.646 32.3453 263.86 31.0951 263.327 29.6569C262.792 28.2164 262.483 26.6825 262.397 25.0543C262.368 24.5029 262.345 23.8923 262.332 23.2224C262.317 22.5536 262.31 21.8641 262.31 21.1505C262.31 20.4381 262.317 19.7488 262.332 19.0788C262.345 18.41 262.368 17.7995 262.397 17.2469C262.483 15.6199 262.792 14.0848 263.327 12.6455C263.86 11.2061 264.646 9.95704 265.684 8.89451C266.723 7.83319 268.02 6.98995 269.578 6.36479C271.135 5.73961 272.982 5.42704 275.115 5.42704ZM245.404 5.428C247.653 5.428 249.572 5.73332 251.158 6.34273C252.744 6.95336 254.057 7.73844 255.095 8.69799C256.133 9.65755 256.903 10.7407 257.409 11.9474C257.913 13.1553 258.21 14.3389 258.296 15.5021C258.323 15.8511 258.215 16.1357 257.971 16.3525C257.727 16.5707 257.446 16.6797 257.128 16.6797H253.623C253.336 16.6797 253.062 16.5864 252.801 16.3963C252.542 16.2072 252.384 15.9249 252.326 15.5457C252.239 14.9653 252.037 14.3972 251.72 13.8447C251.401 13.2934 250.97 12.7991 250.422 12.3617C249.874 11.9256 249.181 11.5706 248.346 11.2931C247.508 11.0169 246.528 10.88 245.404 10.88C244.279 10.88 243.299 11.0533 242.462 11.4022C241.626 11.7511 240.926 12.2163 240.363 12.7991C239.802 13.3795 239.368 14.0773 239.066 14.8915C238.763 15.7056 238.581 16.5647 238.523 17.4648C238.468 18.5697 238.438 19.7909 238.438 21.1297C238.438 22.4661 238.468 23.6873 238.523 24.7923C238.581 25.724 238.763 26.5877 239.066 27.3887C239.368 28.1883 239.802 28.8776 240.363 29.4604C240.926 30.0419 241.626 30.506 242.462 30.8549C243.299 31.2039 244.279 31.3795 245.404 31.3795C246.528 31.3795 247.508 31.2401 248.346 30.9639C249.181 30.6877 249.881 30.3315 250.442 29.8953C251.007 29.4604 251.444 28.9648 251.763 28.4124C252.08 27.8599 252.283 27.2929 252.369 26.7113C252.427 26.3333 252.578 26.0499 252.823 25.8608C253.067 25.6731 253.336 25.5773 253.623 25.5773H257.128C257.446 25.5773 257.727 25.6864 257.971 25.9045C258.215 26.1237 258.323 26.406 258.296 26.7549C258.21 27.9484 257.913 29.1393 257.409 30.3315C256.903 31.5249 256.133 32.5995 255.095 33.5591C254.057 34.5187 252.744 35.3037 251.158 35.9143C249.572 36.5261 247.653 36.8315 245.404 36.8315C243.413 36.8315 241.654 36.5311 240.126 35.9361C238.596 35.3412 237.3 34.5113 236.232 33.45C235.165 32.3899 234.335 31.1165 233.745 29.6336C233.153 28.1507 232.8 26.5369 232.685 24.7923C232.626 23.6873 232.599 22.4661 232.599 21.1297C232.599 19.7909 232.626 18.5697 232.685 17.4648C232.8 15.7201 233.153 14.1064 233.745 12.6234C234.335 11.1405 235.165 9.86956 236.232 8.80824C237.3 7.74692 238.596 6.91701 240.126 6.32092C241.654 5.72605 243.413 5.428 245.404 5.428ZM103.237 5.8632C106.725 5.8632 109.438 6.69189 111.369 8.34931C113.302 10.0067 114.267 12.4359 114.267 15.6332C114.267 18.8317 113.302 21.2753 111.369 22.9607C109.438 24.6471 106.725 25.4904 103.237 25.4904H96.3148V35.2167C96.3148 35.5365 96.1981 35.814 95.9686 36.0455C95.7379 36.278 95.4639 36.3944 95.1454 36.3944H91.6412C91.3251 36.3944 91.05 36.278 90.8204 36.0455C90.5885 35.814 90.4744 35.5365 90.4744 35.2167V7.04083C90.4744 6.72097 90.5885 6.44475 90.8204 6.21213C91.05 5.97951 91.3251 5.8632 91.6412 5.8632H103.237ZM4.67235 5.86296C4.98959 5.86296 5.2636 5.98048 5.49434 6.21188C5.72507 6.44451 5.84043 6.72073 5.84043 7.0418V18.2511H18.9057V7.0418C18.9057 6.72073 19.021 6.44451 19.2518 6.21188C19.4825 5.98048 19.7554 5.86296 20.0737 5.86296H23.5781C23.8952 5.86296 24.1681 5.98048 24.4001 6.21188C24.6308 6.44451 24.7461 6.72073 24.7461 7.0418V35.2177C24.7461 35.5363 24.6308 35.8137 24.4001 36.0452C24.1681 36.2777 23.8952 36.3941 23.5781 36.3941H20.0737C19.7554 36.3941 19.4825 36.2777 19.2518 36.0452C19.021 35.8137 18.9057 35.5363 18.9057 35.2177V23.7031H5.84043V35.2177C5.84043 35.5363 5.72507 35.8137 5.49434 36.0452C5.2636 36.2777 4.98959 36.3941 4.67235 36.3941H1.16808C0.850821 36.3941 0.57563 36.2851 0.346099 36.0681C0.115366 35.8489 0 35.5667 0 35.2177V7.0418C0 6.72073 0.115366 6.44451 0.346099 6.21188C0.57563 5.98048 0.850821 5.86296 1.16808 5.86296H4.67235ZM75.0089 5.8632C78.4976 5.8632 81.2087 6.69189 83.1411 8.34931C85.0734 10.0067 86.0396 12.4359 86.0396 15.6332C86.0396 18.8317 85.0734 21.2753 83.1411 22.9607C81.2087 24.6471 78.4976 25.4904 75.0089 25.4904H68.0858V35.2167C68.0858 35.5365 67.9703 35.814 67.7396 36.0455C67.5089 36.278 67.2349 36.3944 66.9176 36.3944H63.4134C63.0961 36.3944 62.8222 36.278 62.5926 36.0455C62.3607 35.814 62.2466 35.5365 62.2466 35.2167V7.04083C62.2466 6.72097 62.3607 6.44475 62.5926 6.21213C62.8222 5.97951 63.0961 5.8632 63.4134 5.8632H75.0089ZM120.757 5.86296C121.334 5.86296 121.767 6.00835 122.055 6.29912C122.344 6.59109 122.517 6.80797 122.574 6.95336L129.584 19.2967L136.592 6.95336C136.649 6.80797 136.822 6.59109 137.112 6.29912C137.4 6.00835 137.832 5.86296 138.41 5.86296H141.653C141.97 5.86296 142.244 5.98048 142.475 6.21188C142.707 6.44451 142.822 6.72073 142.822 7.0418C142.822 7.18719 142.794 7.31683 142.734 7.43313L132.483 25.6221V35.2177C132.483 35.5363 132.365 35.8137 132.136 36.0452C131.906 36.2777 131.631 36.3941 131.314 36.3941H127.854C127.535 36.3941 127.261 36.2777 127.031 36.0452C126.8 35.8137 126.684 35.5363 126.684 35.2177V25.6221L116.432 7.43313C116.374 7.31683 116.345 7.18719 116.345 7.0418C116.345 6.72073 116.46 6.44451 116.692 6.21188C116.922 5.98048 117.194 5.86296 117.513 5.86296H120.757ZM334.61 5.8632C338.101 5.8632 340.812 6.69189 342.744 8.34931C344.676 10.0067 345.643 12.4359 345.643 15.6332C345.643 18.8317 344.676 21.2753 342.744 22.9607C340.812 24.6471 338.101 25.4904 334.61 25.4904H327.688V35.2167C327.688 35.5365 327.573 35.814 327.342 36.0455C327.112 36.278 326.837 36.3944 326.52 36.3944H323.017C322.699 36.3944 322.425 36.278 322.194 36.0455C321.962 35.814 321.849 35.5365 321.849 35.2167V7.04083C321.849 6.72097 321.962 6.44475 322.194 6.21213C322.425 5.97951 322.699 5.8632 323.017 5.8632H334.61ZM45.8753 5.86259C46.3356 5.86259 46.6816 5.98739 46.9136 6.23453C47.1443 6.48169 47.3461 6.85243 47.5192 7.34675L58.1186 34.912C58.1461 34.998 58.1618 35.1011 58.1618 35.2173C58.1618 35.536 58.0453 35.8135 57.8158 36.0448C57.585 36.2787 57.3109 36.3937 56.9925 36.3937H53.8788C53.3008 36.3937 52.897 36.2713 52.6674 36.0243C52.4356 35.7771 52.2782 35.536 52.1916 35.3033L50.3314 30.462H36.6604L34.8001 35.3033C34.7124 35.536 34.5549 35.7771 34.3242 36.0243C34.0935 36.2713 33.6896 36.3937 33.1128 36.3937H29.998C29.6807 36.3937 29.4055 36.2787 29.176 36.0448C28.9453 35.8135 28.8298 35.536 28.8298 35.2173C28.8298 35.1011 28.8443 34.998 28.8732 34.912L39.4724 7.34675C39.6455 6.85243 39.8473 6.48169 40.0781 6.23453C40.3088 5.98739 40.655 5.86259 41.1163 5.86259H45.8753ZM305.629 5.86283C309.233 5.86283 311.974 6.70608 313.849 8.39256C315.723 10.0803 316.66 12.4198 316.66 15.4147C316.66 17.5385 316.178 19.3487 315.211 20.8449C314.244 22.3436 312.824 23.4559 310.95 24.1815L316.921 34.9547C317.007 35.1291 317.05 35.2891 317.05 35.4344C317.05 35.6961 316.956 35.9227 316.769 36.1105C316.582 36.3007 316.357 36.394 316.098 36.394H312.42C311.843 36.394 311.419 36.2571 311.145 35.9808C310.87 35.7047 310.676 35.4501 310.561 35.2176L304.893 25.0539H299.139V35.2176C299.139 35.5363 299.024 35.8136 298.793 36.0451C298.562 36.2789 298.288 36.394 297.971 36.394H294.467C294.15 36.394 293.876 36.2789 293.645 36.0451C293.413 35.8136 293.299 35.5363 293.299 35.2176V7.04168C293.299 6.72061 293.413 6.44559 293.645 6.21176C293.876 5.98036 294.15 5.86283 294.467 5.86283H305.629ZM275.115 10.879C273.097 10.879 271.474 11.4533 270.249 12.6019C269.023 13.7516 268.351 15.3715 268.238 17.4651C268.18 18.57 268.151 19.7985 268.151 21.1505C268.151 22.5027 268.18 23.7312 268.238 24.8361C268.351 26.9297 269.023 28.5435 270.249 29.6775C271.474 30.8115 273.097 31.3785 275.115 31.3785C277.135 31.3785 278.757 30.8115 279.983 29.6775C281.209 28.5435 281.88 26.9297 281.994 24.8361C282.052 23.7312 282.081 22.5027 282.081 21.1505C282.081 19.7985 282.052 18.57 281.994 17.4651C281.88 15.3715 281.209 13.7516 279.983 12.6019C278.757 11.4533 277.135 10.879 275.115 10.879ZM43.4959 12.5794L38.7369 25.01H48.2547L43.4959 12.5794ZM74.7914 11.3152H68.0858V20.0384H74.7914C76.4353 20.0384 77.7477 19.7112 78.7283 19.0571C79.709 18.4028 80.1992 17.2615 80.1992 15.6332C80.1992 14.006 79.709 12.8793 78.7283 12.2529C77.7477 11.629 76.4353 11.3152 74.7914 11.3152ZM103.02 11.3152H96.3148V20.0384H103.02C104.664 20.0384 105.977 19.7112 106.956 19.0571C107.938 18.4028 108.428 17.2615 108.428 15.6332C108.428 14.006 107.938 12.8793 106.956 12.2529C105.977 11.629 104.664 11.3152 103.02 11.3152ZM334.394 11.3152H327.688V20.0384H334.394C336.039 20.0384 337.351 19.7112 338.331 19.0571C339.312 18.4028 339.802 17.2615 339.802 15.6332C339.802 14.006 339.312 12.8793 338.331 12.2529C337.351 11.629 336.039 11.3152 334.394 11.3152ZM305.412 11.3148H299.139V19.6019H305.412C307.056 19.6019 308.369 19.3123 309.349 18.7296C310.33 18.1492 310.82 17.0443 310.82 15.4147C310.82 13.7864 310.33 12.6972 309.349 12.1447C308.369 11.5923 307.056 11.3148 305.412 11.3148ZM182.169 1.4586L182.488 4.61469C182.575 5.45793 181.936 6.2624 181.128 6.32056L175.767 6.64647C174.957 6.70463 174.193 6.06008 174.107 5.21684L173.787 2.06073C173.702 1.21749 174.635 0.453005 175.443 0.394851L180.482 0.00351964C181.291 -0.0546349 182.082 0.615353 182.169 1.4586ZM188.039 1.63257L194.626 2.21776C195.435 2.2856 195.555 2.48429 195.522 2.74479L195.392 3.72129C195.358 3.98177 195.242 4.17441 194.433 4.10656L187.781 3.5856C186.974 3.51775 186.986 3.28028 187.02 3.0198L187.149 2.04329C187.183 1.78281 187.23 1.56473 188.039 1.63257Z" fill="#1C2930"/>
</svg>