<svg width="88" height="27" viewBox="0 0 88 27" fill="none" xmlns="http://www.w3.org/2000/svg">
<g clip-path="url(#clip0_10790_14958)">
<path d="M38.5351 0.522461V26.5165H34.6411V0.522461H38.5351Z" fill="#CFD893"/>
<path d="M43.8284 0.522461H47.7224V11.2571H60.7992V0.522461H64.6932V26.5165H60.7992V14.5102H47.7224V26.5165H43.8284V0.522461Z" fill="#CFD893"/>
<path d="M71.9048 19.2221C72.622 22.2139 74.7032 23.8208 78.3684 23.8208C82.2624 23.8208 83.8112 22.0615 83.8112 19.7055C83.8112 17.2015 82.5264 15.8166 77.4224 14.619C71.0336 13.0861 68.9964 10.9174 68.9964 7.28984C68.9964 3.28775 71.9444 0.143555 77.8756 0.143555C84.2644 0.143555 86.8692 3.77114 87.2476 7.25065H83.2788C82.8652 5.08194 81.5012 3.20936 77.7612 3.20936C74.7384 3.20936 73.0004 4.52017 73.0004 6.87614C73.0004 9.2321 74.4348 10.1292 78.9316 11.2136C86.4512 13.0077 87.8504 15.8907 87.8504 19.2569C87.8504 23.5595 84.6384 26.8518 78.1 26.8518C71.5616 26.8518 68.5388 23.3374 67.9712 19.2221H71.9004H71.9048Z" fill="#CFD893"/>
<path d="M20.3061 26.4991H1.09126C0.286064 26.4991 0.145264 26.3162 0.145264 26.1551C0.145264 25.9939 0.299264 25.8546 1.08686 25.7675C4.14486 25.4191 13.4025 24.988 19.2149 19.2352C25.0185 13.4912 25.4673 4.37216 25.7621 1.41087C25.8413 0.622646 25.9601 0.417969 26.1669 0.417969C26.3429 0.417969 26.5013 0.613936 26.5013 1.41087V20.3718C26.5013 24.4305 24.4025 26.5035 20.3061 26.5035V26.4991Z" fill="#CFD893"/>
</g>
<defs>
<clipPath id="clip0_10790_14958">
<rect width="88" height="27" fill="white"/>
</clipPath>
</defs>
</svg>
