<svg width="154" height="48" viewBox="0 0 154 48" fill="none" xmlns="http://www.w3.org/2000/svg">
<path d="M35.8501 47.0811H1.68369C0.25351 47.0811 0 46.751 0 46.4592C0 46.1675 0.272642 45.9235 1.67412 45.7609C7.11262 45.1343 23.5716 44.3642 33.9081 34.0277C44.2303 23.7056 45.0243 7.32788 45.5456 2.00417C45.6844 0.583563 45.8996 0.224823 46.2631 0.224823C46.5788 0.224823 46.8562 0.57878 46.8562 2.00417V36.0653C46.8562 43.3549 43.1253 47.0763 35.8453 47.0763L35.8501 47.0811Z" fill="#67813B"/>
<path d="M62.1958 0.1674V11.7236H60.426V0.1674H62.1958Z" fill="#67813B"/>
<path d="M65.152 11.7236V0.1674H67.1896L71.5424 7.04564C71.6859 7.27524 71.8485 7.5431 72.0302 7.85879C72.212 8.17448 72.4033 8.52843 72.6042 8.92544C72.8051 9.32245 73.006 9.75293 73.2021 10.2169H72.9869C72.9391 9.77685 72.9056 9.34158 72.8817 8.91109C72.8577 8.4806 72.8434 8.07403 72.829 7.69616C72.8147 7.31828 72.8147 7.00259 72.8147 6.7443V0.1674H74.6084V11.7236H72.5612L68.6581 5.57242C68.4524 5.23759 68.2467 4.89799 68.0506 4.55838C67.8497 4.21877 67.6297 3.82177 67.3905 3.37693C67.1514 2.93209 66.8548 2.38681 66.5104 1.74586H66.7879C66.8118 2.31506 66.8405 2.84599 66.8644 3.33866C66.8883 3.83133 66.9074 4.27139 66.9218 4.64926C66.9361 5.02713 66.9409 5.33326 66.9409 5.56285V11.7284H65.1472L65.152 11.7236Z" fill="#67813B"/>
<path d="M81.1231 11.915C80.2574 11.915 79.5112 11.7762 78.875 11.5036C78.2389 11.231 77.7414 10.8387 77.3827 10.3269C77.0239 9.81513 76.823 9.21245 76.7896 8.50931H78.5641C78.6024 8.93024 78.7363 9.27463 78.9707 9.54727C79.2051 9.81991 79.5112 10.0256 79.8891 10.1595C80.2669 10.2934 80.6735 10.3604 81.1136 10.3604C81.6062 10.3604 82.0415 10.2839 82.4194 10.1308C82.7973 9.97776 83.0986 9.76251 83.3234 9.4803C83.5434 9.1981 83.6582 8.87284 83.6582 8.49975C83.6582 8.16492 83.5626 7.8875 83.3665 7.67225C83.1703 7.45701 82.912 7.28003 82.582 7.13654C82.252 6.99304 81.8789 6.86868 81.4627 6.75866L80.1139 6.38557C79.1668 6.13206 78.4302 5.75897 77.8993 5.26152C77.3683 4.76407 77.1052 4.12312 77.1052 3.32911C77.1052 2.66424 77.287 2.08069 77.6457 1.57846C78.0045 1.081 78.4924 0.693564 79.1094 0.416138C79.7264 0.138713 80.4248 0 81.1997 0C81.9745 0 82.6872 0.138713 83.2899 0.416138C83.8926 0.693564 84.3661 1.07144 84.7105 1.55454C85.0549 2.03764 85.2319 2.58293 85.251 3.19996H83.5291C83.4717 2.67381 83.2277 2.26245 82.7972 1.97546C82.3668 1.68847 81.8215 1.54019 81.1662 1.54019C80.7022 1.54019 80.2956 1.61194 79.9512 1.75543C79.6069 1.89893 79.339 2.09983 79.1525 2.35812C78.9659 2.61641 78.8702 2.9034 78.8702 3.22866C78.8702 3.59697 78.9803 3.89353 79.2098 4.11834C79.4394 4.34315 79.7073 4.52012 80.0326 4.65405C80.353 4.78798 80.6639 4.89321 80.9605 4.96975L82.0846 5.2663C82.4529 5.36197 82.8307 5.48633 83.223 5.64418C83.6152 5.80202 83.9739 6.0077 84.304 6.25643C84.634 6.50515 84.9019 6.81606 85.1075 7.18915C85.3132 7.55746 85.4137 8.00708 85.4137 8.52845C85.4137 9.17896 85.2462 9.76251 84.9114 10.2743C84.5766 10.7861 84.0887 11.1879 83.4478 11.4797C82.8068 11.7715 82.0367 11.9197 81.1327 11.9197L81.1231 11.915Z" fill="#67813B"/>
<path d="M86.2698 1.68846V0.1674H95.2431V1.68846H91.6509V11.7236H89.8763V1.68846H86.2698Z" fill="#67813B"/>
<path d="M99.3901 0.1674V11.7236H97.6204V0.1674H99.3901Z" fill="#67813B"/>
<path d="M101.763 1.68846V0.1674H110.736V1.68846H107.144V11.7236H105.369V1.68846H101.763Z" fill="#67813B"/>
<path d="M117.083 11.9006C116.155 11.9006 115.347 11.7236 114.653 11.3649C113.96 11.0061 113.424 10.5182 113.046 9.89643C112.668 9.27462 112.477 8.55713 112.477 7.75356V0.1674H114.247V7.60528C114.247 8.12665 114.362 8.59062 114.591 8.99241C114.821 9.3942 115.151 9.71467 115.572 9.94426C115.997 10.1786 116.5 10.2934 117.083 10.2934C117.667 10.2934 118.164 10.1786 118.585 9.94426C119.006 9.70989 119.331 9.3942 119.561 8.99241C119.791 8.59062 119.901 8.12665 119.901 7.60528V0.1674H121.675V7.75356C121.675 8.56192 121.484 9.27462 121.106 9.89643C120.728 10.5182 120.192 11.0109 119.499 11.3649C118.81 11.7236 118.002 11.9006 117.083 11.9006Z" fill="#67813B"/>
<path d="M123.411 1.68846V0.1674H132.385V1.68846H128.792V11.7236H127.018V1.68846H123.411Z" fill="#67813B"/>
<path d="M134.126 11.7236V0.1674H141.401V1.68846H135.896V5.13236H141.004V6.64385H135.896V10.2026H141.449V11.7236H134.126Z" fill="#67813B"/>
<path d="M60.0386 27.8813L61.5788 22.0984H60.3399L60.5169 21.4622H61.7558L61.9136 20.8452C62.5641 18.4632 63.9608 17.7313 65.3288 17.7313C66.0128 17.7313 66.6633 17.9083 67.3138 18.1905L66.8546 19.922H66.7733C66.3428 19.1137 65.9171 18.3005 65.3288 18.3005C64.5348 18.3005 64.1521 19.3815 63.7264 20.9217L63.5829 21.4622H65.965L65.788 22.0984H63.406L61.8514 27.8813C60.9952 31.1195 59.2637 32.3297 56.9438 32.3775C58.5319 31.4735 59.3594 30.4259 60.0386 27.8813Z" fill="#67813B"/>
<path d="M65.0564 25.3414C65.7548 22.7537 67.7398 21.3379 69.6292 21.3714C71.5185 21.4048 72.7909 22.8972 72.0925 25.4849C71.3798 28.1204 69.4091 29.6319 67.5341 29.5985C65.6448 29.5506 64.3246 27.9961 65.0564 25.3414ZM70.141 25.4514C70.6336 23.7343 70.5236 21.974 69.4426 21.9597C68.3329 21.9262 67.5054 23.6769 67.0127 25.3892C66.5057 27.1351 66.5679 28.9766 67.6967 28.9958C68.7777 29.0293 69.6339 27.2164 70.141 25.4562V25.4514Z" fill="#67813B"/>
<path d="M74.2351 23.8299C74.503 22.8302 74.4886 21.8114 74.503 21.5101L74.5173 21.4622H76.598L75.8997 24.1934C76.775 22.4141 78.1526 20.8117 79.6975 21.5579L78.9848 23.5286H78.937C78.6692 23.2129 78.3487 23.0502 77.9852 23.0502C77.0955 23.0837 75.9667 24.3991 75.2874 26.6233L74.5891 29.4023H72.7476L74.2399 23.8299H74.2351Z" fill="#67813B"/>
<path d="M85.562 29.4071V17.8509H87.3318V22.7346H93.0573V17.8509H94.8319V29.4071H93.0573V24.2556H87.3318V29.4071H85.562Z" fill="#67813B"/>
<path d="M102.078 29.5841C101.15 29.5841 100.342 29.4071 99.6485 29.0484C98.955 28.6896 98.4192 28.2018 98.0414 27.5799C97.6635 26.9581 97.4722 26.2406 97.4722 25.4371V17.8509H99.242V25.2888C99.242 25.8102 99.3567 26.2741 99.5863 26.6759C99.8159 27.0777 100.146 27.3982 100.567 27.6278C100.993 27.8621 101.495 27.9769 102.078 27.9769C102.662 27.9769 103.159 27.8621 103.58 27.6278C104.001 27.3934 104.326 27.0777 104.556 26.6759C104.786 26.2741 104.896 25.8102 104.896 25.2888V17.8509H106.67V25.4371C106.67 26.2454 106.479 26.9581 106.101 27.5799C105.723 28.2018 105.187 28.6944 104.494 29.0484C103.805 29.4071 102.997 29.5841 102.078 29.5841Z" fill="#67813B"/>
<path d="M109.306 29.4071V17.8509H111.913L114.433 24.4804C114.505 24.6765 114.586 24.9253 114.677 25.2266C114.768 25.5279 114.864 25.8532 114.96 26.2024C115.055 26.5515 115.151 26.9007 115.237 27.2403C115.323 27.5799 115.404 27.8908 115.471 28.1635H115.098C115.165 27.9052 115.242 27.6039 115.333 27.269C115.424 26.9342 115.514 26.585 115.61 26.2311C115.711 25.8819 115.806 25.5471 115.897 25.2362C115.988 24.9253 116.074 24.6718 116.146 24.4756L118.628 17.8461H121.249V29.4023H119.489V23.1842C119.489 22.945 119.489 22.6628 119.499 22.3328C119.504 22.0027 119.508 21.6536 119.518 21.2805C119.528 20.9122 119.532 20.5391 119.542 20.1612C119.551 19.7833 119.556 19.4246 119.561 19.0754H119.695C119.59 19.4533 119.48 19.8407 119.355 20.2425C119.236 20.6443 119.116 21.0317 118.997 21.4C118.877 21.7683 118.767 22.1127 118.662 22.4189C118.557 22.725 118.466 22.9833 118.394 23.1842L116.026 29.4023H114.515L112.118 23.1842C112.042 22.9881 111.951 22.7393 111.85 22.4332C111.75 22.1319 111.64 21.797 111.52 21.424C111.401 21.0557 111.281 20.6682 111.157 20.2664C111.033 19.8646 110.908 19.4676 110.784 19.0706H110.937C110.946 19.3863 110.956 19.7307 110.966 20.099C110.975 20.4673 110.98 20.8404 110.989 21.2183C110.999 21.5962 111.004 21.9549 111.013 22.2945C111.023 22.6341 111.023 22.9307 111.023 23.1842V29.4023H109.301L109.306 29.4071Z" fill="#67813B"/>
<path d="M122.995 29.4071L127.104 17.8509H129.275L133.461 29.4071H131.547L129.299 22.9785C129.122 22.4571 128.931 21.8401 128.721 21.1322C128.51 20.4243 128.271 19.5729 127.994 18.5827H128.352C128.089 19.5872 127.85 20.4434 127.644 21.1609C127.439 21.8784 127.252 22.481 127.09 22.9785L124.908 29.4071H122.995ZM125.224 26.3602V24.887H131.237V26.3602H125.224Z" fill="#67813B"/>
<path d="M134.901 29.4071V17.8509H136.938L141.291 24.7292C141.434 24.9587 141.597 25.2266 141.779 25.5423C141.961 25.858 142.152 26.2119 142.353 26.6089C142.554 27.006 142.755 27.4364 142.951 27.9004H142.735C142.688 27.4604 142.654 27.0251 142.63 26.5946C142.606 26.1641 142.592 25.7575 142.578 25.3797C142.563 25.0018 142.563 24.6861 142.563 24.4278V17.8509H144.357V29.4071H142.31L138.407 23.2559C138.201 22.9211 137.995 22.5815 137.799 22.2419C137.598 21.9023 137.378 21.5053 137.139 21.0604C136.9 20.6156 136.603 20.0703 136.259 19.4294H136.536C136.56 19.9986 136.589 20.5295 136.613 21.0222C136.637 21.5148 136.656 21.9549 136.67 22.3328C136.685 22.7106 136.689 23.0168 136.689 23.2464V29.4119H134.896L134.901 29.4071Z" fill="#67813B"/>
<path d="M146.677 29.4071V17.8509H153.952V19.372H148.447V22.8159H153.555V24.3274H148.447V27.8861H154V29.4071H146.677Z" fill="#67813B"/>
<path d="M64.3055 47.2867C63.4397 47.2867 62.6936 47.148 62.0574 46.8754C61.4212 46.6027 60.9238 46.2105 60.565 45.6987C60.2063 45.1869 60.0054 44.5842 59.9719 43.8811H61.7465C61.7848 44.302 61.9187 44.6464 62.1531 44.919C62.3874 45.1917 62.6936 45.3974 63.0714 45.5313C63.4493 45.6652 63.8559 45.7322 64.2959 45.7322C64.7886 45.7322 65.2239 45.6557 65.6017 45.5026C65.9796 45.3495 66.281 45.1343 66.5058 44.8521C66.7258 44.5699 66.8406 44.2446 66.8406 43.8715C66.8406 43.5367 66.7449 43.2593 66.5488 43.044C66.3527 42.8288 66.0944 42.6518 65.7644 42.5083C65.4343 42.3648 65.0612 42.2404 64.6451 42.1304L63.2963 41.7573C62.3492 41.5038 61.6126 41.1307 61.0816 40.6333C60.5507 40.1358 60.2876 39.4949 60.2876 38.7009C60.2876 38.036 60.4694 37.4525 60.8281 36.9502C61.1869 36.4528 61.6747 36.0653 62.2918 35.7879C62.9088 35.5105 63.6072 35.3718 64.382 35.3718C65.1569 35.3718 65.8696 35.5105 66.4723 35.7879C67.075 36.0653 67.5485 36.4432 67.8929 36.9263C68.2373 37.4094 68.4143 37.9547 68.4334 38.5717H66.7115C66.6541 38.0456 66.4101 37.6342 65.9796 37.3472C65.5491 37.0602 65.0039 36.912 64.3486 36.912C63.8846 36.912 63.478 36.9837 63.1336 37.1272C62.7892 37.2707 62.5214 37.4716 62.3348 37.7299C62.1483 37.9882 62.0526 38.2752 62.0526 38.6004C62.0526 38.9687 62.1626 39.2653 62.3922 39.4901C62.6218 39.7149 62.8897 39.8919 63.2149 40.0258C63.5354 40.1598 63.8463 40.265 64.1429 40.3415L65.2669 40.6381C65.6352 40.7337 66.0131 40.8581 66.4053 41.0159C66.7976 41.1738 67.1563 41.3795 67.4863 41.6282C67.8164 41.8769 68.0842 42.1878 68.2899 42.5609C68.4956 42.9292 68.596 43.3788 68.596 43.9002C68.596 44.5507 68.4286 45.1343 68.0938 45.6461C67.759 46.1579 67.2711 46.5597 66.6301 46.8515C65.9892 47.1432 65.2191 47.2915 64.3151 47.2915L64.3055 47.2867Z" fill="#67813B"/>
<path d="M69.4568 37.0555V35.5344H78.4301V37.0555H74.8379V47.0906H73.0633V37.0555H69.4568Z" fill="#67813B"/>
<path d="M85.0931 47.2676C84.17 47.2676 83.3568 47.0906 82.6681 46.7319C81.9745 46.3731 81.4388 45.8852 81.0609 45.2634C80.683 44.6416 80.4917 43.9241 80.4917 43.1206V35.5344H82.2615V42.9723C82.2615 43.4936 82.3763 43.9576 82.6059 44.3594C82.8355 44.7612 83.1655 45.0817 83.5864 45.3113C84.0121 45.5456 84.5144 45.6604 85.0979 45.6604C85.6815 45.6604 86.1789 45.5456 86.5998 45.3113C87.0208 45.0769 87.346 44.7612 87.5756 44.3594C87.8004 43.9576 87.9152 43.4936 87.9152 42.9723V35.5344H89.6898V43.1206C89.6898 43.9289 89.4985 44.6416 89.1206 45.2634C88.7427 45.8852 88.207 46.3779 87.5134 46.7319C86.8247 47.0906 86.0163 47.2676 85.0979 47.2676H85.0931Z" fill="#67813B"/>
<path d="M93.7698 35.5344V47.0906H92V35.5344H93.7698ZM95.7548 47.0906H92.8992V45.5409H95.6591C96.5345 45.5409 97.2615 45.3782 97.8403 45.053C98.4191 44.7277 98.8543 44.2494 99.1413 43.6132C99.4283 42.9771 99.5766 42.207 99.5766 41.2982C99.5766 40.3894 99.4331 39.6288 99.1461 39.0022C98.8591 38.3756 98.4334 37.9021 97.869 37.5768C97.3046 37.2516 96.5967 37.0889 95.7548 37.0889H92.8371V35.5392H95.8696C97.008 35.5392 97.9838 35.7688 98.7921 36.228C99.6053 36.6872 100.227 37.3472 100.662 38.2082C101.098 39.0692 101.313 40.0976 101.313 41.2982C101.313 42.4987 101.093 43.5367 100.658 44.4025C100.222 45.2634 99.5862 45.9283 98.7587 46.397C97.9312 46.861 96.9267 47.0954 95.7548 47.0954V47.0906Z" fill="#67813B"/>
<path d="M105.312 35.5344V47.0906H103.542V35.5344H105.312Z" fill="#67813B"/>
<path d="M108.272 47.0906V35.5344H115.548V37.0555H110.042V40.4994H115.151V42.0109H110.042V45.5696H115.596V47.0906H108.272Z" fill="#67813B"/>
<path d="M121.488 47.2867C120.623 47.2867 119.876 47.148 119.24 46.8754C118.604 46.6027 118.107 46.2105 117.748 45.6987C117.389 45.1869 117.188 44.5842 117.155 43.8811H118.929C118.968 44.302 119.102 44.6464 119.336 44.919C119.57 45.1917 119.876 45.3974 120.254 45.5313C120.632 45.6652 121.039 45.7322 121.479 45.7322C121.971 45.7322 122.407 45.6557 122.785 45.5026C123.162 45.3495 123.464 45.1343 123.689 44.8521C123.909 44.5699 124.023 44.2446 124.023 43.8715C124.023 43.5367 123.928 43.2593 123.732 43.044C123.536 42.8288 123.277 42.6518 122.947 42.5083C122.617 42.3648 122.244 42.2404 121.828 42.1304L120.479 41.7573C119.532 41.5038 118.795 41.1307 118.264 40.6333C117.734 40.1358 117.47 39.4949 117.47 38.7009C117.47 38.036 117.652 37.4525 118.011 36.9502C118.37 36.4528 118.858 36.0653 119.475 35.7879C120.092 35.5105 120.79 35.3718 121.565 35.3718C122.34 35.3718 123.052 35.5105 123.655 35.7879C124.258 36.0653 124.731 36.4432 125.076 36.9263C125.42 37.4094 125.597 37.9547 125.616 38.5717H123.894C123.837 38.0456 123.593 37.6342 123.162 37.3472C122.732 37.0602 122.187 36.912 121.531 36.912C121.067 36.912 120.661 36.9837 120.316 37.1272C119.972 37.2707 119.704 37.4716 119.518 37.7299C119.331 37.9882 119.235 38.2752 119.235 38.6004C119.235 38.9687 119.345 39.2653 119.575 39.4901C119.805 39.7149 120.073 39.8919 120.398 40.0258C120.718 40.1598 121.029 40.265 121.326 40.3415L122.45 40.6381C122.818 40.7337 123.196 40.8581 123.588 41.0159C123.98 41.1738 124.339 41.3795 124.669 41.6282C124.999 41.8769 125.267 42.1878 125.473 42.5609C125.678 42.9292 125.779 43.3788 125.779 43.9002C125.779 44.5507 125.611 45.1343 125.277 45.6461C124.942 46.1579 124.454 46.5597 123.813 46.8515C123.172 47.1432 122.402 47.2915 121.498 47.2915L121.488 47.2867Z" fill="#67813B"/>
</svg>
