<svg role="img" viewBox="0 0 24 24" xmlns="http://www.w3.org/2000/svg"><title>Visual Studio Code</title><path fill="#007ACC" d="M23.15 2.587L18.21.21a1.516 1.516 0 0 0-1.706.29L9.53 6.891 4.79 3.34a1.009 1.009 0 0 0-1.29.073L1.76 5.055a1.01 1.01 0 0 0-.006 1.472L5.2 9.993l-3.445 3.465a1.01 1.01 0 0 0 .006 1.472l1.74 1.643a1.009 1.009 0 0 0 1.29.074l4.74-3.552 6.974 6.393c.48.455 1.131.596 1.706.29l4.94-2.378A1.516 1.516 0 0 0 24 15.95V4.05a1.516 1.516 0 0 0-.85-1.463zM17.55 17.36L10.4 11.994 17.55 6.64z"/></svg>